<svg width="94" height="46" viewBox="0 0 94 46" fill="none" xmlns="http://www.w3.org/2000/svg">
<rect x="0.5" y="0.5" width="93" height="45" rx="22.5" stroke="#E8E8E8"/>
<path d="M24.1666 17.75L24.5531 17.8864C26.0574 18.4173 26.8095 18.6828 27.2381 19.2885C27.6666 19.8942 27.6666 20.6918 27.6666 22.287V23.713C27.6666 25.3082 27.6666 26.1058 27.2381 26.7115C26.8095 27.3172 26.0574 27.5827 24.5531 28.1136L24.1666 28.25" stroke="#191E1D" stroke-width="1.2" stroke-linecap="round"/>
<path d="M24.1666 23.0001L18.3333 23.0001M24.1666 23.0001C24.1666 22.5916 23.0033 21.8285 22.7083 21.5417M24.1666 23.0001C24.1666 23.4085 23.0033 24.1717 22.7083 24.4584" stroke="#191E1D" stroke-width="1.2" stroke-linecap="round" stroke-linejoin="round"/>
<path d="M36.98 28V17.92H40.907C41.509 17.92 42.0223 18.0437 42.447 18.291C42.8763 18.5383 43.203 18.865 43.427 19.271C43.6557 19.6723 43.77 20.1063 43.77 20.573C43.77 21.119 43.63 21.5973 43.35 22.008C43.07 22.4187 42.692 22.701 42.216 22.855L42.202 22.512C42.8507 22.6847 43.3547 23.002 43.714 23.464C44.0733 23.926 44.253 24.4767 44.253 25.116C44.253 25.704 44.1317 26.2127 43.889 26.642C43.651 27.0713 43.3057 27.405 42.853 27.643C42.405 27.881 41.873 28 41.257 28H36.98ZM38.24 26.81H41.019C41.3923 26.81 41.726 26.7423 42.02 26.607C42.314 26.467 42.545 26.271 42.713 26.019C42.8857 25.767 42.972 25.4637 42.972 25.109C42.972 24.7683 42.895 24.4627 42.741 24.192C42.5917 23.9213 42.3793 23.7067 42.104 23.548C41.8333 23.3847 41.5183 23.303 41.159 23.303H38.24V26.81ZM38.24 22.127H40.893C41.1917 22.127 41.46 22.064 41.698 21.938C41.9407 21.8073 42.132 21.6253 42.272 21.392C42.4167 21.1587 42.489 20.8857 42.489 20.573C42.489 20.139 42.342 19.7843 42.048 19.509C41.754 19.2337 41.369 19.096 40.893 19.096H38.24V22.127ZM45.648 28L45.641 20.44H46.894V23.177H48.049C48.2683 23.177 48.4923 23.1817 48.721 23.191C48.9496 23.2003 49.148 23.2213 49.316 23.254C49.708 23.3333 50.051 23.4663 50.345 23.653C50.639 23.8397 50.8676 24.0917 51.031 24.409C51.1943 24.7263 51.276 25.1207 51.276 25.592C51.276 26.2453 51.1056 26.7633 50.765 27.146C50.429 27.524 49.988 27.776 49.442 27.902C49.2553 27.944 49.0406 27.972 48.798 27.986C48.56 27.9953 48.3336 28 48.119 28H45.648ZM46.894 26.971H48.14C48.28 26.971 48.4363 26.9663 48.609 26.957C48.7816 26.9477 48.9356 26.9243 49.071 26.887C49.309 26.817 49.5213 26.6793 49.708 26.474C49.8993 26.2687 49.995 25.9747 49.995 25.592C49.995 25.2047 49.9016 24.906 49.715 24.696C49.533 24.486 49.2926 24.3483 48.994 24.283C48.8586 24.2503 48.7163 24.2293 48.567 24.22C48.4176 24.2107 48.2753 24.206 48.14 24.206H46.894V26.971ZM52.144 28V20.44H53.39V28H52.144ZM58.61 19.558C58.26 19.558 57.9403 19.4717 57.651 19.299C57.3617 19.1263 57.1307 18.8977 56.958 18.613C56.7853 18.3237 56.699 18.0017 56.699 17.647H57.707C57.707 17.8943 57.7957 18.1067 57.973 18.284C58.1503 18.4613 58.3627 18.55 58.61 18.55C58.862 18.55 59.0743 18.4613 59.247 18.284C59.4243 18.1067 59.513 17.8943 59.513 17.647H60.521C60.521 18.0017 60.4347 18.3237 60.262 18.613C60.094 18.8977 59.863 19.1263 59.569 19.299C59.2797 19.4717 58.96 19.558 58.61 19.558ZM61.543 20.44V28H60.339V22.428L56.377 28H55.348V20.44H56.552V25.935L60.521 20.44H61.543ZM65.5054 28V21.574H62.8734V20.44H69.3834V21.574H66.7514V28H65.5054ZM76.8965 20.44V28H75.6925V22.428L71.7305 28H70.7015V20.44H71.9055V25.935L75.8745 20.44H76.8965Z" fill="#191E1D"/>
</svg>
