<svg width="65" height="18" viewBox="0 0 65 18" fill="none" xmlns="http://www.w3.org/2000/svg">
<path d="M25.8664 0.271833H33.19V2.74448H28.5211V7.56561H32.5021V10.0126H28.5211V14.9322H33.19V17.4048H25.8664V0.271833Z" fill="#279760"/>
<path d="M14.7004 13.0847V4.56853C14.7004 1.53285 16.3233 0.0171465 18.9028 0.0171465C21.4823 0.0171465 23.1546 1.48575 23.1546 4.54499V5.76311H20.4763V4.12967C20.4763 3.07638 20.0098 2.46411 18.9286 2.46411C17.8473 2.46411 17.3551 3.07638 17.3551 4.12967V13.5279C17.3551 14.579 17.9441 15.1913 19.0017 15.1913C20.0592 15.1913 20.6246 14.6047 20.6246 13.5514V11.6996H23.3029V13.1104C23.3029 16.1697 21.6069 17.6383 18.978 17.6383C16.3491 17.6383 14.7025 16.1461 14.7025 13.0869" fill="#279760"/>
<path d="M46.7578 13.0933V11.6739H49.4125V13.5343C49.4125 14.5876 49.879 15.1977 50.9602 15.1977C52.1898 15.1977 52.5337 14.3649 52.5337 13.1425V12.481C52.5337 10.9632 51.9684 10.4494 50.7883 9.96125L49.7801 9.54593C47.8627 8.78808 46.8051 7.58707 46.8051 5.18935V4.57708C46.8051 1.4686 48.3292 0 50.9839 0C53.6386 0 55.1132 1.41937 55.1132 4.52784V5.75239H52.4348V4.06328C52.4348 3.01 52.0157 2.44696 50.9602 2.44696C49.8296 2.44696 49.4362 3.08278 49.4362 4.30733V5.16366C49.4362 6.38821 49.8038 6.85277 51.2053 7.39012L52.1876 7.78189C54.277 8.58898 55.1863 9.93556 55.1863 12.2862V12.8257C55.1863 16.2039 53.5891 17.6233 50.9344 17.6233C48.2797 17.6233 46.7557 16.1311 46.7557 13.0954" fill="#279760"/>
<path d="M57.6765 0.244337V17.3773H65.0001V14.9047H60.3312V9.98508H64.3122V7.53812H60.3312V2.71699H65.0001V0.244337H57.6765Z" fill="#279760"/>
<path d="M0 0.252604H2.67835V14.913H7.22467V17.3856H0V0.252604Z" fill="#279760"/>
<path d="M12.2915 0.252482H9.6368V17.3855H12.2915V0.252482Z" fill="#279760"/>
<path d="M35.8496 0.252482H37.8401L41.748 10.5563V0.252482H44.2543V17.3855H42.2144L38.3559 7.13094V17.3855H35.8496V0.252482Z" fill="#279760"/>
</svg>
