<svg width="51" height="18" viewBox="0 0 51 18" fill="none" xmlns="http://www.w3.org/2000/svg">
<path d="M0 13.0026V0H2.69673V13.4506C2.69673 14.5205 3.27101 15.1664 4.31913 15.1664C5.36725 15.1664 5.94154 14.5205 5.94154 13.4506V0H8.66229V13.0026C8.66229 16.1363 7.01368 17.6521 4.31913 17.6521C1.62459 17.6521 0 16.1363 0 13.0026Z" fill="#191E1D"/>
<path d="M15.5552 8.75103C16.5793 8.75103 17.1034 8.17908 17.1034 7.0852V4.20154C17.1034 3.08374 16.5793 2.51179 15.5552 2.51179H14.1817V8.7532H15.5552V8.75103ZM11.5112 0H15.481C18.1777 0 19.8001 1.49185 19.8001 4.62561V6.63939C19.8001 9.72313 18.1777 11.265 15.481 11.265H14.2079V17.4064H11.5112V0Z" fill="#191E1D"/>
<path d="M26.0846 8.75103C27.1087 8.75103 27.6327 8.17908 27.6327 7.0852V4.20154C27.6327 3.08374 27.1087 2.51179 26.0846 2.51179H24.7111V8.7532H26.0846V8.75103ZM22.0406 0H26.0103C28.707 0 30.3295 1.49185 30.3295 4.62561V6.63939C30.3295 9.72313 28.707 11.265 26.0103 11.265H24.7373V17.4064H22.0406V0Z" fill="#191E1D"/>
<path d="M32.548 0H39.9875V2.51179H35.2447V7.40923H39.2887V9.89493H35.2447V14.8924H39.9875V17.4042H32.548V0Z" fill="#191E1D"/>
<path d="M46.7813 8.42917C47.8054 8.42917 48.3032 7.8333 48.3032 6.73725V4.20154C48.3032 3.08374 47.8032 2.51179 46.7813 2.51179H45.434V8.42917H46.7813ZM42.7111 0H46.7551C49.4518 0 51 1.49185 51 4.62561V6.21749C51 8.45527 50.2008 9.72313 48.6788 10.319L50.9498 17.4042H48.229L46.2813 10.6909H45.4078V17.4042H42.7111V0Z" fill="#191E1D"/>
</svg>
