<?xml version="1.0" encoding="UTF-8"?>
<!DOCTYPE svg PUBLIC "-//W3C//DTD SVG 1.0//EN" "http://www.w3.org/TR/2001/REC-SVG-20010904/DTD/svg10.dtd">
<!-- Creator: CorelDRAW X7 -->
<svg xmlns="http://www.w3.org/2000/svg" xml:space="preserve" width="210mm" height="48.0447mm" version="1.0" style="shape-rendering:geometricPrecision; text-rendering:geometricPrecision; image-rendering:optimizeQuality; fill-rule:evenodd; clip-rule:evenodd"
viewBox="0 0 21000 4804"
 xmlns:xlink="http://www.w3.org/1999/xlink">
 <defs>
  <style type="text/css">
   <![CDATA[
    .str0 {stroke:#373435;stroke-width:17.64}
    .fil0 {fill:none}
    .fil1 {fill:#030311}
    .fil4 {fill:#202839}
    .fil2 {fill:#2F507E}
    .fil3 {fill:#CEDCF2}
   ]]>
  </style>
 </defs>
 <g id="Слой_x0020_1">
  <metadata id="CorelCorpID_0Corel-Layer"/>
  <path class="fil0 str0" d="M9493 1880l8083 1863"/>
  <path class="fil1" d="M21000 3010l-5673 -1163 2076 1857 1232 1100 2365 0 0 -1794z"/>
  <path class="fil2" d="M17403 3704l-2076 -1857 -1650 997 3726 860z"/>
  <path class="fil3" d="M17403 3704l-3726 -860 -1207 -278 -2977 -686 3232 2924 5910 0 -1232 -1100z"/>
  <path class="fil2" d="M12470 2566l-5054 -2566 2077 1880 2977 686z"/>
  <path class="fil4" d="M9493 1880l-2077 -1880 -7416 2571 0 2233 12725 0 -3232 -2924z"/>
 </g>
</svg>
