<svg width="30" height="30" viewBox="0 0 30 30" fill="none" xmlns="http://www.w3.org/2000/svg">
<path d="M27.1375 10.8875C28.7 9.32497 27.9875 7.49997 27.1375 6.61247L23.3875 2.86247C21.8125 1.29997 20 2.01247 19.1125 2.86247L16.9875 4.99997H13.75C11.375 4.99997 10 6.24997 9.3 7.68747L3.75 13.2375V18.2375L2.8625 19.1125C1.3 20.6875 2.0125 22.5 2.8625 23.3875L6.6125 27.1375C7.2875 27.8125 8.0125 28.0625 8.7 28.0625C9.5875 28.0625 10.4 27.625 10.8875 27.1375L14.2625 23.75H18.75C20.875 23.75 21.95 22.425 22.3375 21.125C23.75 20.75 24.525 19.675 24.8375 18.625C26.775 18.125 27.5 16.2875 27.5 15V11.25H26.7625L27.1375 10.8875ZM25 15C25 15.5625 24.7625 16.25 23.75 16.25H22.5V17.5C22.5 18.0625 22.2625 18.75 21.25 18.75H20V20C20 20.5625 19.7625 21.25 18.75 21.25H13.2375L9.1375 25.35C8.75 25.7125 8.525 25.5 8.3875 25.3625L4.65 21.6375C4.2875 21.25 4.5 21.025 4.6375 20.8875L6.25 19.2625V14.2625L8.75 11.7625V13.75C8.75 15.2625 9.75 17.5 12.5 17.5C15.25 17.5 16.25 15.2625 16.25 13.75H25V15ZM25.3625 9.11247L23.2375 11.25H13.75V13.75C13.75 14.3125 13.5125 15 12.5 15C11.4875 15 11.25 14.3125 11.25 13.75V9.99997C11.25 9.42497 11.4625 7.49997 13.75 7.49997H18.0125L20.8625 4.64997C21.25 4.28747 21.475 4.49997 21.6125 4.63747L25.35 8.36247C25.7125 8.74997 25.5 8.97497 25.3625 9.11247Z" fill="#37825D"/>
</svg>
