<svg width="30" height="30" viewBox="0 0 30 30" fill="none" xmlns="http://www.w3.org/2000/svg">
<path d="M15 3.75C13.4125 3.75 12 4.75 11.475 6.25H3.74998V8.75H6.18748L2.49998 17.5C1.91248 20 3.74998 21.25 6.87498 21.25C9.99998 21.25 11.95 20 11.25 17.5L7.56248 8.75H11.4625C11.875 9.8125 12.6875 10.625 13.75 11.0375V25H2.49998V27.5H27.5V25H16.25V11.025C17.3125 10.625 18.125 9.8125 18.525 8.75H22.4375L18.75 17.5C18.1625 20 20 21.25 23.125 21.25C26.25 21.25 28.2 20 27.5 17.5L23.8125 8.75H26.25V6.25H18.5375C18 4.75 16.5875 3.75 15 3.75ZM15 6.25C15.3315 6.25 15.6494 6.3817 15.8839 6.61612C16.1183 6.85054 16.25 7.16848 16.25 7.5C16.25 7.83152 16.1183 8.14946 15.8839 8.38388C15.6494 8.6183 15.3315 8.75 15 8.75C14.6685 8.75 14.3505 8.6183 14.1161 8.38388C13.8817 8.14946 13.75 7.83152 13.75 7.5C13.75 7.16848 13.8817 6.85054 14.1161 6.61612C14.3505 6.3817 14.6685 6.25 15 6.25ZM6.87498 12.8125L8.74998 17.5H4.99998L6.87498 12.8125ZM23.125 12.8125L25 17.5H21.25L23.125 12.8125Z" fill="#37825D"/>
</svg>
