<svg width="30" height="30" viewBox="0 0 30 30" fill="none" xmlns="http://www.w3.org/2000/svg">
<path d="M20 18.75H11.25V16.25H20V18.75ZM23.75 13.75H11.25V11.25H23.75V13.75ZM23.75 8.75H11.25V6.25H23.75V8.75ZM3.75 6.25V26.25H23.75V28.75H3.75C3.08696 28.75 2.45107 28.4866 1.98223 28.0178C1.51339 27.5489 1.25 26.913 1.25 26.25V6.25H3.75ZM26.25 1.25C26.913 1.25 27.5489 1.51339 28.0178 1.98223C28.4866 2.45107 28.75 3.08696 28.75 3.75V21.25C28.75 22.6375 27.6375 23.75 26.25 23.75H8.75C8.08696 23.75 7.45107 23.4866 6.98223 23.0178C6.51339 22.5489 6.25 21.913 6.25 21.25V3.75C6.25 2.3625 7.3625 1.25 8.75 1.25H26.25ZM8.75 3.75V21.25H26.25V3.75H8.75Z" fill="#37825D"/>
</svg>
