<svg width="120" height="24" viewBox="0 0 120 24" fill="none" xmlns="http://www.w3.org/2000/svg">
<g clip-path="url(#clip0_1662_4065)">
<path d="M26.0596 15.1815V5.39551H28.1763V15.5187C28.1763 16.3239 28.6271 16.8101 29.4498 16.8101C30.2725 16.8101 30.7233 16.3239 30.7233 15.5187V5.39551H32.8589V15.1815C32.8589 17.54 31.5648 18.6808 29.4498 18.6808C27.3348 18.6808 26.0596 17.54 26.0596 15.1815Z" fill="#191E1D"/>
<path d="M38.269 11.9817C39.0729 11.9817 39.4842 11.5512 39.4842 10.728V8.55767C39.4842 7.71639 39.0729 7.28593 38.269 7.28593H37.1909V11.9833H38.269V11.9817ZM35.0947 5.39551H38.2107C40.3275 5.39551 41.601 6.5183 41.601 8.87683V10.3924C41.601 12.7133 40.3275 13.8738 38.2107 13.8738H37.2115V18.4959H35.0947V5.39551Z" fill="#191E1D"/>
<path d="M46.5346 11.9817C47.3385 11.9817 47.7498 11.5512 47.7498 10.728V8.55767C47.7498 7.71639 47.3385 7.28593 46.5346 7.28593H45.4565V11.9833H46.5346V11.9817ZM43.3604 5.39551H46.4763C48.5931 5.39551 49.8666 6.5183 49.8666 8.87683V10.3924C49.8666 12.7133 48.5931 13.8738 46.4763 13.8738H45.4771V18.4959H43.3604V5.39551Z" fill="#191E1D"/>
<path d="M51.6074 5.39551H57.4469V7.28593H53.7242V10.9718H56.8984V12.8426H53.7242V16.6038H57.4469V18.4943H51.6074V5.39551Z" fill="#191E1D"/>
<path d="M62.7798 11.7395C63.5837 11.7395 63.9744 11.291 63.9744 10.4661V8.55767C63.9744 7.71639 63.5819 7.28593 62.7798 7.28593H61.7223V11.7395H62.7798ZM59.585 5.39551H62.7592C64.876 5.39551 66.0912 6.5183 66.0912 8.87683V10.0749C66.0912 11.7591 65.4639 12.7133 64.2692 13.1618L66.0518 18.4943H63.9162L62.3873 13.4417H61.7017V18.4943H59.585V5.39551Z" fill="#191E1D"/>
<path d="M0 17.8217L10.5619 23.6466L18.4838 19.2784V16.3668L10.5619 20.735L0 14.9102V17.8217Z" fill="#279760"/>
<path d="M0 6.17619L10.5619 12.0011L18.4858 7.63286L18.4838 4.72133L10.5619 9.08772L0 3.26465V6.17619Z" fill="#279760"/>
<path d="M5.28218 3.26408L10.5622 6.17561L13.2022 4.72075L5.28027 0.352539L5.28218 3.26408Z" fill="#279760"/>
<path d="M88.8027 5.40332H94.6422V7.29374H90.9195V10.9797H94.0938V12.8504H90.9195V16.6116H94.6422V18.5021H88.8027V5.40332Z" fill="#279760"/>
<path d="M79.8994 15.1986V8.68769C79.8994 6.36681 81.1935 5.20801 83.2502 5.20801C85.307 5.20801 86.6405 6.3308 86.6405 8.66969V9.60099H84.5049V8.35216C84.5049 7.54689 84.1329 7.07879 83.2708 7.07879C82.4087 7.07879 82.0162 7.54689 82.0162 8.35216V15.5374C82.0162 16.341 82.4858 16.8091 83.3291 16.8091C84.1723 16.8091 84.6231 16.3607 84.6231 15.5554V14.1396H86.7587V15.2182C86.7587 17.5571 85.4064 18.6799 83.3102 18.6799C81.214 18.6799 79.9011 17.5391 79.9011 15.2002" fill="#279760"/>
<path d="M105.461 15.2055V14.1204H107.577V15.5427C107.577 16.348 107.949 16.8145 108.812 16.8145C109.792 16.8145 110.066 16.1778 110.066 15.2432V14.7374C110.066 13.577 109.615 13.1842 108.674 12.811L107.871 12.4935C106.342 11.9141 105.498 10.9959 105.498 9.16274V8.69464C105.498 6.31811 106.714 5.19531 108.83 5.19531C110.947 5.19531 112.123 6.28046 112.123 8.657V9.5932H109.987V8.30182C109.987 7.49655 109.653 7.06609 108.812 7.06609C107.91 7.06609 107.596 7.5522 107.596 8.48841V9.1431C107.596 10.0793 107.889 10.4345 109.007 10.8453L109.79 11.1448C111.456 11.7619 112.181 12.7914 112.181 14.5885V15.001C112.181 17.5837 110.908 18.6689 108.791 18.6689C106.674 18.6689 105.459 17.5281 105.459 15.2072" fill="#279760"/>
<path d="M114.167 5.38184V18.4806H120.006V16.5902H116.284V12.829H119.458V10.9582H116.284V7.27226H120.006V5.38184H114.167Z" fill="#279760"/>
<path d="M68.1777 5.38867H70.3133V16.597H73.9384V18.4874H68.1777V5.38867Z" fill="#279760"/>
<path d="M77.9781 5.38867H75.8613V18.4874H77.9781V5.38867Z" fill="#279760"/>
<path d="M96.7627 5.38867H98.3498L101.466 13.2662V5.38867H103.464V18.4874H101.838L98.7612 10.6475V18.4874H96.7627V5.38867Z" fill="#279760"/>
</g>
<defs>
<clipPath id="clip0_1662_4065">
<rect width="120" height="24" fill="white"/>
</clipPath>
</defs>
</svg>
