<svg width="14" height="14" viewBox="0 0 14 14" fill="none" xmlns="http://www.w3.org/2000/svg">
<path d="M11.0815 11.6666C6.10477 11.6736 2.32769 7.85129 2.33301 2.91805C2.33301 2.59588 2.59418 2.33325 2.91635 2.33325H4.45597C4.74506 2.33325 4.99063 2.54566 5.03308 2.83161C5.13482 3.51695 5.33436 4.18415 5.62562 4.81283L5.68557 4.94221C5.76892 5.12212 5.71242 5.33587 5.55107 5.45109C5.07427 5.7916 4.89205 6.47699 5.2635 7.01179C5.72963 7.68291 6.3172 8.27036 6.98817 8.73628C7.52294 9.10763 8.20822 8.92543 8.54872 8.44871C8.66402 8.28728 8.8779 8.23075 9.05791 8.31414L9.1867 8.3738C9.81542 8.66504 10.4827 8.86459 11.1681 8.96631C11.454 9.00875 11.6663 9.25431 11.6663 9.54341V11.0832C11.6663 11.4054 11.4045 11.6666 11.0824 11.6666L11.0815 11.6666Z" fill="#191E1D"/>
</svg>
