<svg width="40" height="40" viewBox="0 0 40 40" fill="none" xmlns="http://www.w3.org/2000/svg">
<circle cx="20" cy="20" r="19.5" stroke="#E8E8E8"/>
<path fill-rule="evenodd" clip-rule="evenodd" d="M21.868 13.0078C21.175 13.0531 20.5797 13.2692 20.0981 13.6502C19.9725 13.7495 19.7549 13.9716 19.653 14.1045C19.4417 14.3801 19.2734 14.7125 19.1639 15.0702C19.1005 15.2774 19.0615 15.463 19.025 15.7315C19.0046 15.8818 19.0035 15.9346 18.9998 16.8941L18.996 17.8991H17.998H17V19.3005V20.7018H17.9986H18.9971V23.8509V27H20.3252H21.6533L21.6558 23.8483L21.6583 20.6966L22.6794 20.6939C23.241 20.6924 23.7004 20.6876 23.7004 20.683C23.7004 20.6785 23.7678 20.0551 23.8502 19.2977C23.9326 18.5402 24 17.9157 24 17.9098C24 17.9026 23.6156 17.8991 22.8267 17.8991H21.6534L21.6535 17.1512C21.6537 16.1765 21.6636 16.0018 21.7299 15.8066C21.8216 15.5368 22.0254 15.3925 22.3923 15.3378C22.4494 15.3293 22.7169 15.3235 23.2086 15.32L23.9401 15.3149V14.2051V13.0954L23.7529 13.0775C23.1178 13.0168 22.2318 12.984 21.868 13.0078Z" fill="#191E1D"/>
</svg>
