<svg width="243" height="78" viewBox="0 0 243 78" fill="none" xmlns="http://www.w3.org/2000/svg">
<g clip-path="url(#clip0_1662_2024)">
<path d="M95.3984 43.5071V29.6436H98.2737V43.9847C98.2737 45.1255 98.886 45.8142 100.004 45.8142C101.121 45.8142 101.733 45.1255 101.733 43.9847V29.6436H104.634V43.5071C104.634 46.8483 102.877 48.4644 100.004 48.4644C97.1306 48.4644 95.3984 46.8483 95.3984 43.5071Z" fill="#191E1D"/>
<path d="M111.984 38.974C113.076 38.974 113.634 38.3642 113.634 37.1979V34.1233C113.634 32.9315 113.076 32.3217 111.984 32.3217H110.519V38.9763H111.984V38.974ZM107.672 29.6436H111.904C114.78 29.6436 116.51 31.2342 116.51 34.5754V36.7225C116.51 40.0105 114.78 41.6544 111.904 41.6544H110.547V48.2024H107.672V29.6436Z" fill="#191E1D"/>
<path d="M123.21 38.974C124.302 38.974 124.861 38.3642 124.861 37.1979V34.1233C124.861 32.9315 124.302 32.3217 123.21 32.3217H121.746V38.9763H123.21V38.974ZM118.898 29.6436H123.131C126.006 29.6436 127.736 31.2342 127.736 34.5754V36.7225C127.736 40.0105 126.006 41.6544 123.131 41.6544H121.774V48.2024H118.898V29.6436Z" fill="#191E1D"/>
<path d="M130.102 29.6436H138.034V32.3217H132.977V37.5434H137.289V40.1936H132.977V45.522H138.034V48.2001H130.102V29.6436Z" fill="#191E1D"/>
<path d="M145.277 38.6308C146.369 38.6308 146.9 37.9955 146.9 36.8269V34.1233C146.9 32.9315 146.367 32.3217 145.277 32.3217H143.841V38.6308H145.277ZM140.938 29.6436H145.249C148.125 29.6436 149.775 31.2342 149.775 34.5754V36.2727C149.775 38.6587 148.923 40.0105 147.3 40.6458L149.722 48.2001H146.821L144.744 41.0423H143.813V48.2001H140.938V29.6436Z" fill="#191E1D"/>
<path d="M60 47.248L74.3467 55.4999L85.1074 49.3116V45.1869L74.3467 51.3752L60 43.1233V47.248Z" fill="#279760"/>
<path d="M60 30.7497L74.3467 39.0016L85.11 32.8133L85.1074 28.6886L74.3467 34.8744L60 26.625V30.7497Z" fill="#279760"/>
<path d="M67.1745 26.6247L74.3465 30.7494L77.9326 28.6883L67.1719 22.5L67.1745 26.6247Z" fill="#279760"/>
<path d="M180.625 29.6548H188.557V32.3329H183.5V37.5546H187.812V40.2049H183.5V45.5332H188.557V48.2113H180.625V29.6548Z" fill="#279760"/>
<path d="M168.531 43.5322V34.3085C168.531 31.0205 170.289 29.3789 173.083 29.3789C175.877 29.3789 177.688 30.9695 177.688 34.283V35.6023H174.787V33.8331C174.787 32.6923 174.282 32.0292 173.111 32.0292C171.94 32.0292 171.407 32.6923 171.407 33.8331V44.0122C171.407 45.1507 172.044 45.8139 173.19 45.8139C174.335 45.8139 174.948 45.1785 174.948 44.0377V42.0321H177.849V43.5601C177.849 46.8735 176.012 48.4641 173.164 48.4641C170.317 48.4641 168.534 46.848 168.534 43.5346" fill="#279760"/>
<path d="M203.252 43.5415V42.0042H206.128V44.0192C206.128 45.16 206.633 45.8208 207.804 45.8208C209.136 45.8208 209.508 44.9188 209.508 43.5948V42.8784C209.508 41.2344 208.896 40.6779 207.618 40.1493L206.526 39.6994C204.449 38.8786 203.304 37.5778 203.304 34.9809V34.3177C203.304 30.951 204.954 29.3604 207.829 29.3604C210.705 29.3604 212.302 30.8976 212.302 34.2644V35.5907H209.401V33.7612C209.401 32.6204 208.947 32.0106 207.804 32.0106C206.579 32.0106 206.153 32.6993 206.153 34.0256V34.9531C206.153 36.2794 206.551 36.7825 208.069 37.3645L209.133 37.7888C211.396 38.663 212.381 40.1214 212.381 42.6674V43.2517C212.381 46.9106 210.651 48.4479 207.776 48.4479C204.901 48.4479 203.25 46.8318 203.25 43.5438" fill="#279760"/>
<path d="M215.078 29.625V48.1816H223.01V45.5035H217.953V40.1751H222.265V37.5248H217.953V32.3031H223.01V29.625H215.078Z" fill="#279760"/>
<path d="M152.609 29.634H155.51V45.5125H160.434V48.1906H152.609V29.634Z" fill="#279760"/>
<path d="M165.922 29.6338H163.047V48.1903H165.922V29.6338Z" fill="#279760"/>
<path d="M191.438 29.6338H193.593L197.826 40.7937V29.6338H200.541V48.1903H198.331L194.152 37.0838V48.1903H191.438V29.6338Z" fill="#279760"/>
</g>
<defs>
<clipPath id="clip0_1662_2024">
<rect width="163.001" height="34" fill="white" transform="translate(60 22)"/>
</clipPath>
</defs>
</svg>
