<svg width="7" height="14" viewBox="0 0 7 14" fill="none" xmlns="http://www.w3.org/2000/svg">
<path fill-rule="evenodd" clip-rule="evenodd" d="M4.86805 0.0078008C4.17498 0.0531476 3.57969 0.269185 3.09807 0.650151C2.97245 0.749526 2.7549 0.971621 2.65304 1.10449C2.44173 1.38013 2.27341 1.71245 2.16391 2.07021C2.10048 2.27743 2.06151 2.46297 2.02503 2.73152C2.00461 2.88184 2.00347 2.93455 1.99984 3.89406L1.99605 4.89914H0.998024H0V6.30048V7.70183H0.998573H1.99715V10.8509V14H3.32523H4.65332L4.65583 10.8483L4.65835 7.69658L5.67939 7.6939C6.24095 7.69243 6.70043 7.68755 6.70043 7.68305C6.70043 7.67855 6.76783 7.05513 6.85021 6.29768C6.9326 5.54023 7 4.91569 7 4.90982C7 4.90264 6.61562 4.89914 5.82668 4.89914H4.65335L4.65349 4.15123C4.65368 3.17646 4.66361 3.00181 4.72992 2.80657C4.82158 2.53676 5.02541 2.39251 5.3923 2.33781C5.44936 2.3293 5.71692 2.32346 6.20863 2.32001L6.94009 2.31485V1.20512V0.0953665L6.75285 0.0774692C6.11779 0.0167548 5.23178 -0.0159958 4.86805 0.0078008Z" fill="#191E1D"/>
</svg>
