<svg width="218" height="78" viewBox="0 0 218 78" fill="none" xmlns="http://www.w3.org/2000/svg">
<g clip-path="url(#clip0_1662_3729)">
<path d="M46.0596 42.1815V32.3955H48.1763V42.5187C48.1763 43.3239 48.6271 43.8101 49.4498 43.8101C50.2725 43.8101 50.7233 43.3239 50.7233 42.5187V32.3955H52.8589V42.1815C52.8589 44.54 51.5648 45.6808 49.4498 45.6808C47.3348 45.6808 46.0596 44.54 46.0596 42.1815Z" fill="#191E1D"/>
<path d="M58.269 38.9817C59.0729 38.9817 59.4842 38.5512 59.4842 37.728V35.5577C59.4842 34.7164 59.0729 34.2859 58.269 34.2859H57.1909V38.9833H58.269V38.9817ZM55.0947 32.3955H58.2107C60.3275 32.3955 61.601 33.5183 61.601 35.8768V37.3924C61.601 39.7133 60.3275 40.8738 58.2107 40.8738H57.2115V45.4959H55.0947V32.3955Z" fill="#191E1D"/>
<path d="M66.5346 38.9817C67.3385 38.9817 67.7498 38.5512 67.7498 37.728V35.5577C67.7498 34.7164 67.3385 34.2859 66.5346 34.2859H65.4565V38.9833H66.5346V38.9817ZM63.3604 32.3955H66.4763C68.5931 32.3955 69.8666 33.5183 69.8666 35.8768V37.3924C69.8666 39.7133 68.5931 40.8738 66.4763 40.8738H65.4771V45.4959H63.3604V32.3955Z" fill="#191E1D"/>
<path d="M71.6074 32.3955H77.4469V34.2859H73.7242V37.9718H76.8984V39.8426H73.7242V43.6038H77.4469V45.4943H71.6074V32.3955Z" fill="#191E1D"/>
<path d="M82.7798 38.7395C83.5837 38.7395 83.9744 38.291 83.9744 37.4661V35.5577C83.9744 34.7164 83.5819 34.2859 82.7798 34.2859H81.7223V38.7395H82.7798ZM79.585 32.3955H82.7592C84.876 32.3955 86.0912 33.5183 86.0912 35.8768V37.0749C86.0912 38.7591 85.4639 39.7133 84.2692 40.1618L86.0518 45.4943H83.9162L82.3873 40.4417H81.7017V45.4943H79.585V32.3955Z" fill="#191E1D"/>
<path d="M20 44.8222L30.5619 50.6471L38.4838 46.2789V43.3673L30.5619 47.7355L20 41.9106V44.8222Z" fill="#279760"/>
<path d="M20 33.1764L30.5619 39.0013L38.4858 34.6331L38.4838 31.7216L30.5619 36.088L20 30.2649V33.1764Z" fill="#279760"/>
<path d="M25.2822 30.2646L30.5622 33.1761L33.2022 31.7212L25.2803 27.353L25.2822 30.2646Z" fill="#279760"/>
<path d="M108.803 32.4033H114.642V34.2937H110.919V37.9797H114.094V39.8504H110.919V43.6116H114.642V45.5021H108.803V32.4033Z" fill="#279760"/>
<path d="M99.8994 42.1993V35.6884C99.8994 33.3675 101.193 32.2087 103.25 32.2087C105.307 32.2087 106.64 33.3315 106.64 35.6704V36.6017H104.505V35.3529C104.505 34.5476 104.133 34.0795 103.271 34.0795C102.409 34.0795 102.016 34.5476 102.016 35.3529V42.5381C102.016 43.3418 102.486 43.8099 103.329 43.8099C104.172 43.8099 104.623 43.3614 104.623 42.5561V41.1404H106.759V42.219C106.759 44.5579 105.406 45.6807 103.31 45.6807C101.214 45.6807 99.9011 44.5399 99.9011 42.201" fill="#279760"/>
<path d="M125.461 42.2058V41.1206H127.577V42.543C127.577 43.3482 127.949 43.8147 128.812 43.8147C129.792 43.8147 130.066 43.178 130.066 42.2434V41.7377C130.066 40.5772 129.615 40.1844 128.674 39.8113L127.871 39.4937C126.342 38.9143 125.498 37.9961 125.498 36.163V35.6949C125.498 33.3184 126.714 32.1956 128.83 32.1956C130.947 32.1956 132.123 33.2807 132.123 35.6572V36.5934H129.987V35.3021C129.987 34.4968 129.653 34.0663 128.812 34.0663C127.91 34.0663 127.596 34.5524 127.596 35.4887V36.1433C127.596 37.0796 127.889 37.4347 129.007 37.8455L129.79 38.1451C131.456 38.7621 132.181 39.7916 132.181 41.5887V42.0012C132.181 44.584 130.908 45.6691 128.791 45.6691C126.674 45.6691 125.459 44.5283 125.459 42.2074" fill="#279760"/>
<path d="M134.167 32.3823V45.4811H140.006V43.5906H136.284V39.8294H139.458V37.9587H136.284V34.2727H140.006V32.3823H134.167Z" fill="#279760"/>
<path d="M88.1777 32.3887H90.3133V43.597H93.9384V45.4874H88.1777V32.3887Z" fill="#279760"/>
<path d="M97.9781 32.3887H95.8613V45.4874H97.9781V32.3887Z" fill="#279760"/>
<path d="M116.763 32.3887H118.35L121.466 40.2662V32.3887H123.464V45.4874H121.838L118.761 37.6475V45.4874H116.763V32.3887Z" fill="#279760"/>
</g>
<defs>
<clipPath id="clip0_1662_3729">
<rect width="120" height="24" fill="white" transform="translate(20 27)"/>
</clipPath>
</defs>
</svg>
