<svg width="11" height="10" viewBox="0 0 11 10" fill="none" xmlns="http://www.w3.org/2000/svg">
<path d="M11 6.13208V10H8.63229V6.36793C8.63229 5.4717 8.287 4.85849 7.44843 4.85849C6.80718 4.85849 6.41256 5.28302 6.26457 5.66038C6.21525 5.80189 6.16592 5.99057 6.16592 6.22641V10H3.79821C3.79821 10 3.84753 3.86793 3.79821 3.25472H6.16592V4.19811C6.46188 3.72642 7.05381 3.06604 8.28699 3.06604C9.81614 3.06604 11 4.0566 11 6.13208ZM1.33184 0C0.542599 0 0 0.518868 0 1.17925C0 1.83962 0.493273 2.35849 1.28251 2.35849C2.12108 2.35849 2.61435 1.83962 2.61435 1.17925C2.66368 0.471698 2.1704 0 1.33184 0ZM0.147982 10H2.51569V3.25472H0.147982V10Z" fill="#191E1D"/>
</svg>
