<svg width="12" height="9" viewBox="0 0 12 9" fill="none" xmlns="http://www.w3.org/2000/svg">
<path d="M12 3.45454C12 3.18181 11.9562 2.86364 11.9562 2.5C11.9124 2.13636 11.8686 1.77273 11.8248 1.45454C11.7372 1.09091 11.6058 0.818183 11.3431 0.59091C11.1241 0.363638 10.8175 0.22727 10.511 0.181815C9.50365 0.0454518 8.01461 0 6.00001 0C3.98541 0 2.45255 0.0454518 1.48905 0.181815C1.18248 0.22727 0.875913 0.363638 0.656934 0.59091C0.437956 0.818183 0.262771 1.09091 0.17518 1.45454C0.0875886 1.77273 0.0437983 2.09091 0.0437983 2.5C2.67242e-06 2.86364 0 3.18181 0 3.45454C0 3.72727 0 4.04545 0 4.5C0 4.95454 0 5.31818 0 5.54545C0 5.81818 0.0437983 6.13636 0.0437983 6.5C0.0875939 6.86364 0.131384 7.22727 0.17518 7.54545C0.262771 7.90909 0.394161 8.18182 0.656934 8.40909C0.875913 8.63636 1.18248 8.77272 1.48905 8.81818C2.49635 8.95454 3.98541 9 6.00001 9C8.01461 9 9.54745 8.95454 10.511 8.81818C10.8175 8.77272 11.1241 8.63636 11.3431 8.40909C11.562 8.18182 11.7372 7.90909 11.8248 7.54545C11.9124 7.22727 11.9562 6.90909 11.9562 6.5C12 6.13636 12 5.81818 12 5.54545C12 5.27273 12 4.95454 12 4.5C12 4.04545 12 3.68181 12 3.45454ZM8.32117 4.86363L4.86132 7.0909C4.81752 7.13636 4.72993 7.18182 4.64234 7.18182C4.55475 7.18182 4.51095 7.18182 4.42336 7.13636C4.29197 7.04545 4.20438 6.90909 4.20438 6.72727V2.22727C4.20438 2.04545 4.29197 1.90909 4.42336 1.81818C4.55475 1.72727 4.72993 1.72727 4.86132 1.81818L8.32117 4.04545C8.45256 4.13636 8.54015 4.27273 8.54015 4.40909C8.54015 4.54545 8.45256 4.77273 8.32117 4.86363Z" fill="#191E1D"/>
</svg>
