<svg width="14" height="11" viewBox="0 0 14 11" fill="none" xmlns="http://www.w3.org/2000/svg">
<path d="M0.245491 5.27991L3.46416 6.36094L4.71888 9.99712C4.77344 10.2428 5.10076 10.292 5.31898 10.1445L7.11923 8.81782C7.2829 8.67041 7.55567 8.67041 7.77388 8.81782L10.9925 10.9307C11.2108 11.0782 11.5381 10.9799 11.5926 10.7342L13.993 0.415287C14.0475 0.169599 13.7748 -0.0760874 13.502 0.0221879L0.245491 4.64113C-0.0818302 4.7394 -0.0818302 5.18164 0.245491 5.27991ZM4.55523 5.82043L10.8834 2.33165C10.9925 2.28252 11.1016 2.42993 10.9925 2.47907L5.80995 6.85232C5.64629 6.99973 5.48263 7.19628 5.48263 7.44197L5.31898 8.62127C5.31898 8.76869 5.04621 8.81782 4.99165 8.62127L4.337 6.45922C4.17334 6.21353 4.28246 5.9187 4.55523 5.82043Z" fill="#191E1D"/>
</svg>
