<svg width="20" height="20" viewBox="0 0 20 20" fill="none" xmlns="http://www.w3.org/2000/svg">
<path d="M10 16.4C11.6974 16.4 13.3253 15.7257 14.5255 14.5255C15.7257 13.3253 16.4 11.6974 16.4 10C16.4 8.30261 15.7257 6.67475 14.5255 5.47452C13.3253 4.27428 11.6974 3.6 10 3.6C8.30261 3.6 6.67475 4.27428 5.47452 5.47452C4.27428 6.67475 3.6 8.30261 3.6 10C3.6 11.6974 4.27428 13.3253 5.47452 14.5255C6.67475 15.7257 8.30261 16.4 10 16.4ZM10 2C11.0506 2 12.0909 2.20693 13.0615 2.60896C14.0321 3.011 14.914 3.60028 15.6569 4.34315C16.3997 5.08601 16.989 5.96793 17.391 6.93853C17.7931 7.90914 18 8.94943 18 10C18 12.1217 17.1571 14.1566 15.6569 15.6569C14.1566 17.1571 12.1217 18 10 18C5.576 18 2 14.4 2 10C2 7.87827 2.84285 5.84344 4.34315 4.34315C5.84344 2.84285 7.87827 2 10 2Z" fill="white"/>
<path d="M8.16 7.288H12.472V8.296H8.16V7.288ZM10.92 13H9.712V9.864H8.16V8.856H12.472V9.864H10.92V13Z" fill="white"/>
</svg>
