<svg width="44" height="44" viewBox="0 0 44 44" fill="none" xmlns="http://www.w3.org/2000/svg">
<path d="M22.0003 36.667C13.9153 36.667 7.33366 30.0853 7.33366 22.0003C7.33366 13.9153 13.9153 7.33366 22.0003 7.33366C30.0853 7.33366 36.667 13.9153 36.667 22.0003C36.667 30.0853 30.0853 36.667 22.0003 36.667ZM22.0003 3.66699C19.5928 3.66699 17.2088 4.1412 14.9845 5.06253C12.7602 5.98387 10.7391 7.33429 9.0367 9.0367C5.59853 12.4749 3.66699 17.138 3.66699 22.0003C3.66699 26.8626 5.59853 31.5258 9.0367 34.964C10.7391 36.6664 12.7602 38.0168 14.9845 38.9381C17.2088 39.8595 19.5928 40.3337 22.0003 40.3337C26.8626 40.3337 31.5258 38.4021 34.964 34.964C38.4021 31.5258 40.3337 26.8626 40.3337 22.0003C40.3337 19.5928 39.8595 17.2088 38.9381 14.9845C38.0168 12.7602 36.6664 10.7391 34.964 9.0367C33.2615 7.33429 31.2405 5.98387 29.0162 5.06253C26.7919 4.1412 24.4079 3.66699 22.0003 3.66699ZM18.3337 30.2503L29.3337 22.0003L18.3337 13.7503V30.2503Z" fill="white"/>
</svg>
